<svg width="410" height="16" viewBox="0 0 410 16" fill="none" xmlns="http://www.w3.org/2000/svg">
<rect y="8" width="149" height="2" fill="#CED4DA"/>
<rect x="262" y="8" width="148" height="2" fill="#CED4DA"/>
<path d="M161.716 12.084C160.932 12.084 160.212 11.9 159.556 11.532C158.9 11.164 158.38 10.656 157.996 10.008C157.612 9.352 157.42 8.612 157.42 7.788C157.42 6.972 157.612 6.24 157.996 5.592C158.38 4.936 158.9 4.424 159.556 4.056C160.212 3.688 160.932 3.504 161.716 3.504C162.508 3.504 163.228 3.688 163.876 4.056C164.532 4.424 165.048 4.936 165.424 5.592C165.808 6.24 166 6.972 166 7.788C166 8.612 165.808 9.352 165.424 10.008C165.048 10.656 164.532 11.164 163.876 11.532C163.22 11.9 162.5 12.084 161.716 12.084ZM161.716 10.584C162.22 10.584 162.664 10.472 163.048 10.248C163.432 10.016 163.732 9.688 163.948 9.264C164.164 8.84 164.272 8.348 164.272 7.788C164.272 7.228 164.164 6.74 163.948 6.324C163.732 5.9 163.432 5.576 163.048 5.352C162.664 5.128 162.22 5.016 161.716 5.016C161.212 5.016 160.764 5.128 160.372 5.352C159.988 5.576 159.688 5.9 159.472 6.324C159.256 6.74 159.148 7.228 159.148 7.788C159.148 8.348 159.256 8.84 159.472 9.264C159.688 9.688 159.988 10.016 160.372 10.248C160.764 10.472 161.212 10.584 161.716 10.584ZM168.93 6.384C169.146 6.032 169.426 5.756 169.77 5.556C170.122 5.356 170.522 5.256 170.97 5.256V7.02H170.526C169.998 7.02 169.598 7.144 169.326 7.392C169.062 7.64 168.93 8.072 168.93 8.688V12H167.25V5.352H168.93V6.384ZM174.529 8.676C174.529 7.988 174.669 7.388 174.949 6.876C175.229 6.356 175.617 5.956 176.113 5.676C176.609 5.388 177.177 5.244 177.817 5.244C178.641 5.244 179.321 5.452 179.857 5.868C180.401 6.276 180.765 6.852 180.949 7.596H179.137C179.041 7.308 178.877 7.084 178.645 6.924C178.421 6.756 178.141 6.672 177.805 6.672C177.325 6.672 176.945 6.848 176.665 7.2C176.385 7.544 176.245 8.036 176.245 8.676C176.245 9.308 176.385 9.8 176.665 10.152C176.945 10.496 177.325 10.668 177.805 10.668C178.485 10.668 178.929 10.364 179.137 9.756H180.949C180.765 10.476 180.401 11.048 179.857 11.472C179.313 11.896 178.633 12.108 177.817 12.108C177.177 12.108 176.609 11.968 176.113 11.688C175.617 11.4 175.229 11 174.949 10.488C174.669 9.968 174.529 9.364 174.529 8.676ZM185.132 12.108C184.492 12.108 183.916 11.968 183.404 11.688C182.892 11.4 182.488 10.996 182.192 10.476C181.904 9.956 181.76 9.356 181.76 8.676C181.76 7.996 181.908 7.396 182.204 6.876C182.508 6.356 182.92 5.956 183.44 5.676C183.96 5.388 184.54 5.244 185.18 5.244C185.82 5.244 186.4 5.388 186.92 5.676C187.44 5.956 187.848 6.356 188.144 6.876C188.448 7.396 188.6 7.996 188.6 8.676C188.6 9.356 188.444 9.956 188.132 10.476C187.828 10.996 187.412 11.4 186.884 11.688C186.364 11.968 185.78 12.108 185.132 12.108ZM185.132 10.644C185.436 10.644 185.72 10.572 185.984 10.428C186.256 10.276 186.472 10.052 186.632 9.756C186.792 9.46 186.872 9.1 186.872 8.676C186.872 8.044 186.704 7.56 186.368 7.224C186.04 6.88 185.636 6.708 185.156 6.708C184.676 6.708 184.272 6.88 183.944 7.224C183.624 7.56 183.464 8.044 183.464 8.676C183.464 9.308 183.62 9.796 183.932 10.14C184.252 10.476 184.652 10.644 185.132 10.644ZM193.516 5.256C194.308 5.256 194.948 5.508 195.436 6.012C195.924 6.508 196.168 7.204 196.168 8.1V12H194.488V8.328C194.488 7.8 194.356 7.396 194.092 7.116C193.828 6.828 193.468 6.684 193.012 6.684C192.548 6.684 192.18 6.828 191.908 7.116C191.644 7.396 191.512 7.8 191.512 8.328V12H189.832V5.352H191.512V6.18C191.736 5.892 192.02 5.668 192.364 5.508C192.716 5.34 193.1 5.256 193.516 5.256ZM201.45 5.256C202.242 5.256 202.882 5.508 203.37 6.012C203.858 6.508 204.102 7.204 204.102 8.1V12H202.422V8.328C202.422 7.8 202.29 7.396 202.026 7.116C201.762 6.828 201.402 6.684 200.946 6.684C200.482 6.684 200.114 6.828 199.842 7.116C199.578 7.396 199.446 7.8 199.446 8.328V12H197.766V5.352H199.446V6.18C199.67 5.892 199.954 5.668 200.298 5.508C200.65 5.34 201.034 5.256 201.45 5.256ZM211.879 8.532C211.879 8.772 211.863 8.988 211.831 9.18H206.971C207.011 9.66 207.179 10.036 207.475 10.308C207.771 10.58 208.135 10.716 208.567 10.716C209.191 10.716 209.635 10.448 209.899 9.912H211.711C211.519 10.552 211.151 11.08 210.607 11.496C210.063 11.904 209.395 12.108 208.603 12.108C207.963 12.108 207.387 11.968 206.875 11.688C206.371 11.4 205.975 10.996 205.687 10.476C205.407 9.956 205.267 9.356 205.267 8.676C205.267 7.988 205.407 7.384 205.687 6.864C205.967 6.344 206.359 5.944 206.863 5.664C207.367 5.384 207.947 5.244 208.603 5.244C209.235 5.244 209.799 5.38 210.295 5.652C210.799 5.924 211.187 6.312 211.459 6.816C211.739 7.312 211.879 7.884 211.879 8.532ZM210.139 8.052C210.131 7.62 209.975 7.276 209.671 7.02C209.367 6.756 208.995 6.624 208.555 6.624C208.139 6.624 207.787 6.752 207.499 7.008C207.219 7.256 207.047 7.604 206.983 8.052H210.139ZM212.673 8.676C212.673 7.988 212.813 7.388 213.093 6.876C213.373 6.356 213.761 5.956 214.257 5.676C214.753 5.388 215.321 5.244 215.961 5.244C216.785 5.244 217.465 5.452 218.001 5.868C218.545 6.276 218.909 6.852 219.093 7.596H217.281C217.185 7.308 217.021 7.084 216.789 6.924C216.565 6.756 216.285 6.672 215.949 6.672C215.469 6.672 215.089 6.848 214.809 7.2C214.529 7.544 214.389 8.036 214.389 8.676C214.389 9.308 214.529 9.8 214.809 10.152C215.089 10.496 215.469 10.668 215.949 10.668C216.629 10.668 217.073 10.364 217.281 9.756H219.093C218.909 10.476 218.545 11.048 218.001 11.472C217.457 11.896 216.777 12.108 215.961 12.108C215.321 12.108 214.753 11.968 214.257 11.688C213.761 11.4 213.373 11 213.093 10.488C212.813 9.968 212.673 9.364 212.673 8.676ZM222.28 6.732V9.948C222.28 10.172 222.332 10.336 222.436 10.44C222.548 10.536 222.732 10.584 222.988 10.584H223.768V12H222.712C221.296 12 220.588 11.312 220.588 9.936V6.732H219.796V5.352H220.588V3.708H222.28V5.352H223.768V6.732H222.28ZM237.052 5.352L235.108 12H233.296L232.084 7.356L230.872 12H229.048L227.092 5.352H228.796L229.972 10.416L231.244 5.352H233.02L234.268 10.404L235.444 5.352H237.052ZM238.813 4.56C238.517 4.56 238.269 4.468 238.069 4.284C237.877 4.092 237.781 3.856 237.781 3.576C237.781 3.296 237.877 3.064 238.069 2.88C238.269 2.688 238.517 2.592 238.813 2.592C239.109 2.592 239.353 2.688 239.545 2.88C239.745 3.064 239.845 3.296 239.845 3.576C239.845 3.856 239.745 4.092 239.545 4.284C239.353 4.468 239.109 4.56 238.813 4.56ZM239.641 5.352V12H237.961V5.352H239.641ZM243.257 6.732V9.948C243.257 10.172 243.309 10.336 243.413 10.44C243.525 10.536 243.709 10.584 243.965 10.584H244.745V12H243.689C242.273 12 241.565 11.312 241.565 9.936V6.732H240.773V5.352H241.565V3.708H243.257V5.352H244.745V6.732H243.257ZM249.697 5.256C250.201 5.256 250.649 5.368 251.041 5.592C251.433 5.808 251.737 6.132 251.953 6.564C252.177 6.988 252.289 7.5 252.289 8.1V12H250.609V8.328C250.609 7.8 250.477 7.396 250.213 7.116C249.949 6.828 249.589 6.684 249.133 6.684C248.669 6.684 248.301 6.828 248.029 7.116C247.765 7.396 247.633 7.8 247.633 8.328V12H245.953V3.12H247.633V6.18C247.849 5.892 248.137 5.668 248.497 5.508C248.857 5.34 249.257 5.256 249.697 5.256Z" fill="black"/>
</svg>
